<?xml version="1.0" encoding="UTF-8" standalone="no"?>
<svg width="40px" height="39px" viewBox="0 0 40 39" version="1.1" xmlns="http://www.w3.org/2000/svg" xmlns:xlink="http://www.w3.org/1999/xlink" xmlns:sketch="http://www.bohemiancoding.com/sketch/ns">
    <!-- Generator: Sketch 3.4.4 (17249) - http://www.bohemiancoding.com/sketch -->
    <title>Logo</title>
    <desc>Created with Sketch.</desc>
    <defs></defs>
    <g id="Page-1" stroke="none" stroke-width="1" fill="none" fill-rule="evenodd" sketch:type="MSPage">
        <g id="Jobs---Add-new" sketch:type="MSArtboardGroup" transform="translate(-135.000000, -21.000000)" fill="#23C3F2">
            <g id="Top" sketch:type="MSLayerGroup">
                <g id="Logo" transform="translate(135.000000, 21.000000)" sketch:type="MSShapeGroup">
                    <g>
                        <path d="M15.7996721,0 C17.850548,1.39468011 21.249005,1.5145461 23.3947054,0.265185373 L22.6682538,0.688170866 C24.9928667,-0.665363899 27.6276701,0.279868999 28.5568799,2.8092838 L28.1801069,1.78366484 C28.8933103,3.72508569 31.133748,5.49003972 33.1904186,5.72650759 L33.0981496,5.71589887 C35.7701724,6.0231175 37.3030366,8.361437 36.5252006,10.9277845 L36.7282029,10.2580105 C36.1278207,12.2388768 36.9291184,14.9170924 38.5195509,16.2413046 L38.4200652,16.1584717 C40.4858022,17.8784277 40.5322004,20.7212781 38.521885,22.5097694 L38.9572789,22.1224181 C37.4114518,23.497674 36.5375484,26.2465656 37.0056356,28.2634231 L36.8355551,27.5305935 C37.4434658,30.1499112 35.7673709,32.5141499 33.0981496,32.8105736 L33.1965781,32.7996429 C31.139261,33.0281131 28.8957526,34.78788 28.1858068,36.7295225 L28.5495756,35.7346451 C27.6260242,38.2604811 24.9936781,39.2110715 22.6697883,37.8576864 L23.2700955,38.2072929 C21.4826373,37.1663144 18.5860234,37.1676866 16.800583,38.2102083 L17.4140757,37.8519889 C15.0909806,39.2084482 12.2348045,38.3600197 11.0343131,35.9563407 L11.3374671,36.5633296 C10.4134265,34.713173 8.00106407,33.0052833 5.95060875,32.7488142 L6.97759067,32.8772681 C4.31072485,32.5436989 2.51168528,30.1240571 2.9587887,27.4760133 L2.81826695,28.3082766 C3.1628921,26.2671772 2.23822312,23.4472934 0.752159723,22.0091142 L1.42295558,22.6582956 C-0.50909702,20.788498 -0.468295383,17.7992694 1.51247694,15.9831444 L0.683465486,16.7432462 C2.20710898,15.3462522 3.17268828,12.5586126 2.8400292,10.5161543 L2.9310552,11.0750352 C2.49902921,8.42248457 4.31300303,6.00493554 6.98337921,5.67520188 L6.31480744,5.75775602 C8.36706201,5.504347 10.7201041,3.7666696 11.5680575,1.88191594 L11.2092247,2.6794969 C12.3129742,0.226183133 15.0103858,-0.536747144 17.2322709,0.974226241 L15.7996721,0 L15.7996721,0 Z M22.3981547,8.81040395 C25.1186642,9.00240378 27.2660532,11.2702215 27.2660532,14.0395889 C27.2660532,16.0520705 26.1320522,17.799692 24.4681836,18.67832 C26.5585233,19.6136339 28.0149607,21.7116522 28.0149607,24.1498396 C28.0149607,27.458721 25.3325823,30.1410993 22.023701,30.1410993 C21.8979404,30.1410993 21.7730849,30.1372245 21.6492472,30.1295879 L21.6492472,30.1410993 L17.3430293,30.1410993 L14.5367975,30.1410993 C13.9151832,30.1410993 13.4112651,29.6345472 13.4112651,29.0161321 L13.4112651,8.79723664 L17.3430293,8.79723664 L22.3981547,8.79723664 L22.3981547,8.81040395 L22.3981547,8.81040395 Z M11.5389965,8.79723664 L13.4112651,8.79723664 L13.4112651,11.7928665 L11.5389965,11.7928665 L11.5389965,8.79723664 L11.5389965,8.79723664 Z M21.3408736,26.7640549 C22.9768245,26.6548647 24.2704233,25.2747002 24.2704233,23.588159 C24.2704233,21.9016178 22.9768245,20.5214534 21.3408736,20.4122631 L21.3408736,20.4053023 L17.1558025,20.4053023 L17.1558025,26.7710157 L21.3408736,26.7710157 L21.3408736,26.7640549 L21.3408736,26.7640549 Z M20.9003398,17.4035306 C22.3640854,17.3071862 23.5215159,16.089394 23.5215159,14.6012695 C23.5215159,13.1131449 22.3640854,11.8953527 20.9003398,11.7990084 L20.9003398,11.7928665 L17.1558025,11.7928665 L17.1558025,17.4096724 L20.9003398,17.4096724 L20.9003398,17.4035306 L20.9003398,17.4035306 Z"></path>
                    </g>
                </g>
            </g>
        </g>
    </g>
</svg>